<?xml version="1.0" encoding="UTF-8"?>
<!DOCTYPE svg PUBLIC "-//W3C//DTD SVG 1.1//EN" "http://www.w3.org/Graphics/SVG/1.1/DTD/svg11.dtd">
<svg version="1.1" xmlns="http://www.w3.org/2000/svg" xmlns:xlink="http://www.w3.org/1999/xlink" x="0" y="0" width="700" height="500" viewBox="0, 0, 700, 500">
  <g id="Layer_1">
    <path d="M505.698,493.683 L471.853,493.822 L471.341,157.918 L596.047,30.178 L630.298,30.178 L628.289,359.288 L505.698,493.683 z M505.698,493.683" fill="#FFFFFF"/>
    <path d="M505.698,493.683 L471.853,493.822 L471.341,157.918 L596.047,30.178 L630.298,30.178 L628.289,359.288 L505.698,493.683 z M505.698,493.683" fill-opacity="0" stroke="#000000" stroke-width="2"/>
    <path d="M95.347,491.733 L61.502,491.871 L60.99,155.967 L185.695,28.228 L219.947,28.228 L217.938,357.337 L95.347,491.733 z M95.347,491.733" fill="#FFFFFF"/>
    <path d="M95.347,491.733 L61.502,491.871 L60.99,155.967 L185.695,28.228 L219.947,28.228 L217.938,357.337 L95.347,491.733 z M95.347,491.733" fill-opacity="0" stroke="#000000" stroke-width="2"/>
    <path d="M61.193,157.964 L98.325,157.964" fill-opacity="0" stroke="#000000" stroke-width="2"/>
    <path d="M138.918,240.936 C142.803,244.82 142.803,251.118 138.918,255.002 C135.034,258.887 128.736,258.887 124.852,255.002 C120.968,251.118 120.968,244.82 124.852,240.936 C128.736,237.052 135.034,237.052 138.918,240.936 z M138.918,240.936" fill="#FFFFFF"/>
    <path d="M138.918,240.936 C142.803,244.82 142.803,251.118 138.918,255.002 C135.034,258.887 128.736,258.887 124.852,255.002 C120.968,251.118 120.968,244.82 124.852,240.936 C128.736,237.052 135.034,237.052 138.918,240.936 z M138.918,240.936" fill-opacity="0" stroke="#000000" stroke-width="2"/>
    <path d="M160.811,212.072 C164.695,215.956 164.695,222.254 160.811,226.138 C156.927,230.022 150.629,230.022 146.745,226.138 C142.861,222.254 142.861,215.956 146.745,212.072 C150.629,208.188 156.927,208.188 160.811,212.072 z M160.811,212.072" fill="#FFFFFF"/>
    <path d="M160.811,212.072 C164.695,215.956 164.695,222.254 160.811,226.138 C156.927,230.022 150.629,230.022 146.745,226.138 C142.861,222.254 142.861,215.956 146.745,212.072 C150.629,208.188 156.927,208.188 160.811,212.072 z M160.811,212.072" fill-opacity="0" stroke="#000000" stroke-width="2"/>
    <path d="M138.918,280.746 C142.803,284.631 142.803,290.928 138.918,294.813 C135.034,298.697 128.736,298.697 124.852,294.813 C120.968,290.928 120.968,284.631 124.852,280.746 C128.736,276.862 135.034,276.862 138.918,280.746 z M138.918,280.746" fill="#FFFFFF"/>
    <path d="M138.918,280.746 C142.803,284.631 142.803,290.928 138.918,294.813 C135.034,298.697 128.736,298.697 124.852,294.813 C120.968,290.928 120.968,284.631 124.852,280.746 C128.736,276.862 135.034,276.862 138.918,280.746 z M138.918,280.746" fill-opacity="0" stroke="#000000" stroke-width="2"/>
    <path d="M160.811,251.882 C164.695,255.767 164.695,262.064 160.811,265.949 C156.927,269.833 150.629,269.833 146.745,265.949 C142.861,262.064 142.861,255.767 146.745,251.882 C150.629,247.998 156.927,247.998 160.811,251.882 z M160.811,251.882" fill="#FFFFFF"/>
    <path d="M160.811,251.882 C164.695,255.767 164.695,262.064 160.811,265.949 C156.927,269.833 150.629,269.833 146.745,265.949 C142.861,262.064 142.861,255.767 146.745,251.882 C150.629,247.998 156.927,247.998 160.811,251.882 z M160.811,251.882" fill-opacity="0" stroke="#000000" stroke-width="2"/>
    <path d="M131.885,258.929 C131.885,264.897 131.885,270.865 131.885,276.833" fill-opacity="0" stroke="#000000" stroke-width="3" stroke-dasharray="3,3"/>
    <path d="M138.495,239.254 C141.385,235.444 144.275,231.634 147.165,227.823" fill-opacity="0" stroke="#000000" stroke-width="3" stroke-dasharray="3,3"/>
    <path d="M153.778,230.065 C153.778,236.033 153.778,242.001 153.778,247.969" fill-opacity="0" stroke="#000000" stroke-width="3" stroke-dasharray="3,3"/>
    <path d="M138.495,279.065 C141.385,275.254 144.275,271.444 147.165,267.634" fill-opacity="0" stroke="#000000" stroke-width="3" stroke-dasharray="3,3"/>
    <path d="M185.927,223.018 C189.811,226.903 189.811,233.2 185.927,237.084 C182.042,240.969 175.745,240.969 171.86,237.084 C167.976,233.2 167.976,226.903 171.86,223.018 C175.745,219.134 182.042,219.134 185.927,223.018 z M185.927,223.018" fill="#FFFFFF"/>
    <path d="M185.927,223.018 C189.811,226.903 189.811,233.2 185.927,237.084 C182.042,240.969 175.745,240.969 171.86,237.084 C167.976,233.2 167.976,226.903 171.86,223.018 C175.745,219.134 182.042,219.134 185.927,223.018 z M185.927,223.018" fill-opacity="0" stroke="#000000" stroke-width="2"/>
    <path d="M185.927,182.072 C189.811,185.956 189.811,192.254 185.927,196.138 C182.042,200.022 175.745,200.022 171.86,196.138 C167.976,192.254 167.976,185.956 171.86,182.072 C175.745,178.188 182.042,178.188 185.927,182.072 z M185.927,182.072" fill="#FFFFFF"/>
    <path d="M185.927,182.072 C189.811,185.956 189.811,192.254 185.927,196.138 C182.042,200.022 175.745,200.022 171.86,196.138 C167.976,192.254 167.976,185.956 171.86,182.072 C175.745,178.188 182.042,178.188 185.927,182.072 z M185.927,182.072" fill-opacity="0" stroke="#000000" stroke-width="2"/>
    <path d="M160.799,210.718 C164.49,206.31 168.18,201.902 171.871,197.494" fill-opacity="0" stroke="#000000" stroke-width="3" stroke-dasharray="3,3"/>
    <path d="M178.894,200.065 C178.894,206.412 178.894,212.758 178.894,219.105" fill-opacity="0" stroke="#000000" stroke-width="3" stroke-dasharray="3,3"/>
    <path d="M160.958,250.664 C164.543,246.544 168.128,242.424 171.713,238.304" fill-opacity="0" stroke="#000000" stroke-width="3" stroke-dasharray="3,3"/>
    <path d="M138.918,320.557 C142.803,324.441 142.803,330.739 138.918,334.623 C135.034,338.507 128.736,338.507 124.852,334.623 C120.968,330.739 120.968,324.441 124.852,320.557 C128.736,316.673 135.034,316.673 138.918,320.557 z M138.918,320.557" fill="#FFFFFF"/>
    <path d="M138.918,320.557 C142.803,324.441 142.803,330.739 138.918,334.623 C135.034,338.507 128.736,338.507 124.852,334.623 C120.968,330.739 120.968,324.441 124.852,320.557 C128.736,316.673 135.034,316.673 138.918,320.557 z M138.918,320.557" fill-opacity="0" stroke="#000000" stroke-width="2"/>
    <path d="M160.811,291.693 C164.695,295.577 164.695,301.875 160.811,305.759 C156.927,309.643 150.629,309.643 146.745,305.759 C142.861,301.875 142.861,295.577 146.745,291.693 C150.629,287.809 156.927,287.809 160.811,291.693 z M160.811,291.693" fill="#FFFFFF"/>
    <path d="M160.811,291.693 C164.695,295.577 164.695,301.875 160.811,305.759 C156.927,309.643 150.629,309.643 146.745,305.759 C142.861,301.875 142.861,295.577 146.745,291.693 C150.629,287.809 156.927,287.809 160.811,291.693 z M160.811,291.693" fill-opacity="0" stroke="#000000" stroke-width="2"/>
    <path d="M185.927,263.965 C189.811,267.849 189.811,274.147 185.927,278.031 C182.042,281.915 175.745,281.915 171.86,278.031 C167.976,274.147 167.976,267.849 171.86,263.965 C175.745,260.08 182.042,260.08 185.927,263.965 z M185.927,263.965" fill="#FFFFFF"/>
    <path d="M185.927,263.965 C189.811,267.849 189.811,274.147 185.927,278.031 C182.042,281.915 175.745,281.915 171.86,278.031 C167.976,274.147 167.976,267.849 171.86,263.965 C175.745,260.081 182.042,260.081 185.927,263.965 z M185.927,263.965" fill-opacity="0" stroke="#000000" stroke-width="2"/>
    <path d="M131.885,298.74 C131.885,304.708 131.885,310.676 131.885,316.644" fill-opacity="0" stroke="#000000" stroke-width="3" stroke-dasharray="3,3"/>
    <path d="M153.778,287.78 C153.778,281.811 153.778,275.843 153.778,269.875" fill-opacity="0" stroke="#000000" stroke-width="3" stroke-dasharray="3,3"/>
    <path d="M178.894,260.052 C178.894,253.705 178.894,247.358 178.894,241.011" fill-opacity="0" stroke="#000000" stroke-width="3" stroke-dasharray="3,3"/>
    <path d="M147.165,307.444 C144.275,311.254 141.385,315.065 138.495,318.875" fill-opacity="0" stroke="#000000" stroke-width="3" stroke-dasharray="3,3"/>
    <path d="M161.121,290.619 C164.597,286.781 168.074,282.943 171.55,279.105" fill-opacity="0" stroke="#000000" stroke-width="3" stroke-dasharray="3,3"/>
    <path d="M301.279,304.821 L301.279,234.821 C301.279,226.536 307.995,219.821 316.279,219.821 L386.279,219.821 C394.564,219.821 401.279,226.536 401.279,234.821 L401.279,304.821 C401.279,313.105 394.564,319.821 386.279,319.821 L316.279,319.821 C307.995,319.821 301.279,313.105 301.279,304.821 z M301.279,304.821" fill="#FFFFFF"/>
    <path d="M301.279,304.821 L301.279,234.821 C301.279,226.536 307.995,219.821 316.279,219.821 L386.279,219.821 C394.564,219.821 401.279,226.536 401.279,234.821 L401.279,304.821 C401.279,313.105 394.564,319.821 386.279,319.821 L316.279,319.821 C307.995,319.821 301.279,313.105 301.279,304.821 z M301.279,304.821" fill-opacity="0" stroke="#000000" stroke-width="2"/>
    <text transform="matrix(1, 0, -0, 1, 351.719, 269.833)">
      <tspan x="-6.719" y="7.5" font-family="Helvetica-Bold" font-size="22" kerning="0" fill="#000000">Σ</tspan>
    </text>
    <g>
      <path d="M188.812,193.749 C223.069,209.789 257.326,225.829 291.583,241.869 L292.491,242.294" fill-opacity="0" stroke="#000000" stroke-width="2"/>
      <path d="M289.55,246.217 L300.279,245.941 L293.621,237.523 z" fill="#000000"/>
      <path d="M164.389,221.83 C206.587,232.666 248.785,243.501 290.982,254.337 L291.949,254.585" fill-opacity="0" stroke="#000000" stroke-width="2"/>
      <path d="M289.787,258.986 L300.279,256.724 L292.175,249.688 z" fill="#000000"/>
      <path d="M142.79,249.055 C192.102,253.967 241.414,258.878 290.726,263.789 L291.722,263.889" fill-opacity="0" stroke="#000000" stroke-width="2"/>
      <path d="M290.251,268.566 L300.279,264.741 L291.202,259.013 z" fill="#000000"/>
      <path d="M189.569,232.514 C223.354,240.308 257.139,248.102 290.924,255.897 L291.899,256.122" fill-opacity="0" stroke="#000000" stroke-width="2"/>
      <path d="M289.846,260.574 L300.279,258.055 L292.004,251.22 z" fill="#000000"/>
      <path d="M142.809,286.885 C192.11,282.85 241.41,278.814 290.711,274.778 L291.708,274.697" fill-opacity="0" stroke="#000000" stroke-width="2"/>
      <path d="M291.103,279.562 L300.279,273.995 L290.32,269.994 z" fill="#000000"/>
      <path d="M291.963,285.439 L290.996,285.694 C241.492,298.729 191.987,311.764 142.482,324.8" fill-opacity="0" stroke="#000000" stroke-width="2"/>
      <path d="M292.218,290.336 L300.279,283.249 L289.773,281.052 z" fill="#000000"/>
      <path d="M164.622,297.139 C206.675,290.984 248.727,284.829 290.78,278.675 L291.77,278.53" fill-opacity="0" stroke="#000000" stroke-width="2"/>
      <path d="M291.476,283.424 L300.279,277.285 L290.085,273.925 z" fill="#000000"/>
      <path d="M189.853,270.923 C223.462,270.693 257.071,270.464 290.679,270.234 L291.679,270.228" fill-opacity="0" stroke="#000000" stroke-width="2"/>
      <path d="M290.712,275.034 L300.279,270.169 L290.647,265.434 z" fill="#000000"/>
      <path d="M164.72,259.52 C206.712,261.838 248.703,264.157 290.694,266.475 L291.692,266.53" fill-opacity="0" stroke="#000000" stroke-width="2"/>
      <path d="M290.429,271.268 L300.279,267.004 L290.958,261.682 z" fill="#000000"/>
      <path d="M555.337,262.829 C559.221,266.713 559.221,273.01 555.337,276.895 C551.453,280.779 545.155,280.779 541.271,276.895 C537.386,273.01 537.386,266.713 541.271,262.829 C545.155,258.944 551.453,258.944 555.337,262.829 z M555.337,262.829" fill="#FFFFFF"/>
      <path d="M555.337,262.829 C559.221,266.713 559.221,273.01 555.337,276.895 C551.452,280.779 545.155,280.779 541.271,276.895 C537.386,273.01 537.386,266.713 541.271,262.829 C545.155,258.944 551.452,258.944 555.337,262.829 z M555.337,262.829" fill-opacity="0" stroke="#000000" stroke-width="2"/>
      <path d="M402.279,269.831 C442.905,269.84 483.531,269.848 524.157,269.857 L525.657,269.857" fill-opacity="0" stroke="#000000" stroke-width="3"/>
      <path d="M524.156,276.457 L537.357,269.859 L524.159,263.257 z" fill="#000000"/>
      <path d="M95.347,491.733 L96.632,158.394 L219.947,28.228" fill-opacity="0" stroke="#000000" stroke-width="2"/>
      <path d="M471.045,157.183 L508.177,157.183" fill-opacity="0" stroke="#000000" stroke-width="2"/>
      <path d="M505.066,494.041 L506.484,157.613 L630.298,30.178" fill-opacity="0" stroke="#000000" stroke-width="2"/>
      <text transform="matrix(1, 0, -0, 1, 122.118, 422.833)">
        <tspan x="-6.118" y="7.5" font-family="Helvetica-Bold" font-size="22" kerning="0" fill="#000000">x</tspan>
      </text>
      <text transform="matrix(1, 0, -0, 1, 524.118, 422.833)">
        <tspan x="-6.118" y="7.5" font-family="Helvetica-Bold" font-size="22" kerning="0" fill="#000000">y</tspan>
      </text>
      <path d="M249.628,182.32 L275.741,182.32 L275.741,216.32 L249.628,216.32 z M249.628,182.32" fill="#FFFFFF"/>
    </g>
    <text transform="matrix(1, 0, -0, 1, 262.556, 199.833)">
      <tspan x="-8.556" y="7.5" font-family="Helvetica-Bold" font-size="22" kerning="0" fill="#000000">w</tspan>
    </text>
    <g>
      <text transform="matrix(1, 0, -0, 1, 77.382, 63.833)">
        <tspan x="-10.382" y="7.5" font-family="Helvetica" font-size="22" kerning="0" fill="#0035FF">W</tspan>
      </text>
      <text transform="matrix(1, 0, -0, 1, 13.944, 326.833)">
        <tspan x="-7.944" y="7.5" font-family="Helvetica" font-size="22" kerning="0" fill="#0035FF">H</tspan>
      </text>
      <path d="M113.467,242.613 L113.467,243.613 L113.467,331.946 L113.467,332.946" fill-opacity="0" stroke="#9F9DA0" stroke-width="2"/>
      <path d="M108.667,333.226 L118.267,333.226" fill-opacity="0" stroke="#9F9DA0" stroke-width="2"/>
      <path d="M118.267,242.333 L108.667,242.333" fill-opacity="0" stroke="#9F9DA0" stroke-width="2"/>
      <path d="M44.392,143.79 L45.099,143.082 L168.598,19.584 L169.305,18.877" fill-opacity="0" stroke="#9F9DA0" stroke-width="2"/>
      <path d="M172.897,22.073 L166.108,15.285" fill-opacity="0" stroke="#9F9DA0" stroke-width="2"/>
      <path d="M40.8,140.593 L47.588,147.382" fill-opacity="0" stroke="#9F9DA0" stroke-width="2"/>
      <text transform="matrix(1, 0, -0, 1, 484.079, 63.833)">
        <tspan x="-15.079" y="7.5" font-family="Helvetica" font-size="22" kerning="-0.004" fill="#0035FF">W</tspan>
        <tspan x="5.682" y="7.5" font-family="Helvetica" font-size="22" kerning="-0.378" fill="#0035FF">’</tspan>
        <tspan x="10.191" y="7.5" font-family="Helvetica" font-size="22" kerning="0" fill="#0035FF">’</tspan>
      </text>
      <path d="M78.891,270.998 L108.667,270.998 L108.667,304.998 L78.891,304.998 z M78.891,270.998" fill="#FFFFFF"/>
    </g>
    <text transform="matrix(1, 0, -0, 1, 93.39, 288.833)">
      <tspan x="-10.39" y="7.5" font-family="Helvetica" font-size="22" kerning="0.004" fill="#0035FF">H</tspan>
      <tspan x="5.502" y="7.5" font-family="Helvetica" font-size="22" kerning="0" fill="#0035FF">’</tspan>
    </text>
    <g>
      <path d="M120.877,222.006 L121.584,221.298 L175.572,167.311 L176.279,166.604" fill-opacity="0" stroke="#9F9DA0" stroke-width="2"/>
      <path d="M179.871,169.8 L173.083,163.012" fill-opacity="0" stroke="#9F9DA0" stroke-width="2"/>
      <path d="M117.285,218.809 L124.073,225.598" fill-opacity="0" stroke="#9F9DA0" stroke-width="2"/>
      <text transform="matrix(1, 0, -0, 1, 138.824, 176.833)">
        <tspan x="-12.824" y="7.5" font-family="Helvetica" font-size="22" kerning="-0.004" fill="#0035FF">W</tspan>
        <tspan x="7.936" y="7.5" font-family="Helvetica" font-size="22" kerning="0" fill="#0035FF">’</tspan>
      </text>
      <path d="M44.893,160.244 L44.893,161.244 L44.893,490.595 L44.893,491.595" fill-opacity="0" stroke="#9F9DA0" stroke-width="2"/>
      <path d="M40.093,491.875 L49.693,491.875" fill-opacity="0" stroke="#9F9DA0" stroke-width="2"/>
      <path d="M49.693,159.964 L40.093,159.964" fill-opacity="0" stroke="#9F9DA0" stroke-width="2"/>
      <path d="M451.527,143.79 L452.234,143.082 L575.732,19.584 L576.439,18.877" fill-opacity="0" stroke="#9F9DA0" stroke-width="2"/>
      <path d="M580.031,22.073 L573.243,15.285" fill-opacity="0" stroke="#9F9DA0" stroke-width="2"/>
      <path d="M447.935,140.593 L454.723,147.382" fill-opacity="0" stroke="#9F9DA0" stroke-width="2"/>
      <text transform="matrix(1, 0, -0, 1, 684.638, 195.833)">
        <tspan x="-12.638" y="7.5" font-family="Helvetica" font-size="22" kerning="0.004" fill="#0035FF">H</tspan>
        <tspan x="3.254" y="7.5" font-family="Helvetica" font-size="22" kerning="-0.392" fill="#0035FF">’</tspan>
        <tspan x="7.75" y="7.5" font-family="Helvetica" font-size="22" kerning="0" fill="#0035FF">’</tspan>
      </text>
      <path d="M649.719,30.458 L649.719,31.458 L649.719,360.81 L649.719,361.81" fill-opacity="0" stroke="#9F9DA0" stroke-width="2"/>
      <path d="M644.919,362.09 L654.519,362.09" fill-opacity="0" stroke="#9F9DA0" stroke-width="2"/>
      <path d="M654.519,30.178 L644.919,30.178" fill-opacity="0" stroke="#9F9DA0" stroke-width="2"/>
    </g>
  </g>
</svg>
